<?xml version="1.0" encoding="UTF-8" standalone="no"?>
<!-- Created with Inkscape (http://www.inkscape.org/) -->

<svg
   width="210mm"
   height="297mm"
   viewBox="0 0 210 297"
   version="1.1"
   id="svg1083"
   inkscape:version="1.2.2 (b0a84865, 2022-12-01)"
   sodipodi:docname="logo-mobile.svg"
   xmlns:inkscape="http://www.inkscape.org/namespaces/inkscape"
   xmlns:sodipodi="http://sodipodi.sourceforge.net/DTD/sodipodi-0.dtd"
   xmlns:xlink="http://www.w3.org/1999/xlink"
   xmlns="http://www.w3.org/2000/svg"
   xmlns:svg="http://www.w3.org/2000/svg">
  <sodipodi:namedview
     id="namedview1085"
     pagecolor="#ffffff"
     bordercolor="#000000"
     borderopacity="0.25"
     inkscape:showpageshadow="2"
     inkscape:pageopacity="0.0"
     inkscape:pagecheckerboard="0"
     inkscape:deskcolor="#d1d1d1"
     inkscape:document-units="mm"
     showgrid="false"
     inkscape:zoom="1"
     inkscape:cx="326.5"
     inkscape:cy="557.5"
     inkscape:window-width="1512"
     inkscape:window-height="957"
     inkscape:window-x="0"
     inkscape:window-y="25"
     inkscape:window-maximized="0"
     inkscape:current-layer="svg1083" />
  <defs
     id="defs1080">
    <linearGradient
       inkscape:collect="always"
       id="linearGradient4639">
      <stop
         style="stop-color:#4d4d4d;stop-opacity:1;"
         offset="0"
         id="stop4635" />
      <stop
         style="stop-color:#4d4d4d;stop-opacity:0;"
         offset="1"
         id="stop4637" />
    </linearGradient>
    <linearGradient
       inkscape:collect="always"
       xlink:href="#linearGradient4639"
       id="linearGradient4641"
       x1="126.96005"
       y1="45.905209"
       x2="195.03787"
       y2="45.905209"
       gradientUnits="userSpaceOnUse"
       gradientTransform="matrix(2.3683667,0.34162781,-2.0179896,1.0068605,-185.76372,51.091821)" />
  </defs>
  <path
     id="path1160"
     style="fill:url(#linearGradient4641);stroke:#000000;stroke-width:0.0799043"
     inkscape:transform-center-x="-71.630601"
     inkscape:transform-center-y="-74.834536"
     d="m 176.37551,162.91161 a 31.708676,101.45349 80.357831 0 1 -141.5465,23.36792 31.708676,101.45349 80.357831 0 1 -5.395263,-44.5637 31.708676,101.45349 80.357831 0 1 141.546493,-23.36792 31.708676,101.45349 80.357831 0 1 5.39527,44.5637 z" />
  <g
     inkscape:groupmode="layer"
     id="layer3"
     inkscape:label="Layer 2" />
  <g
     inkscape:label="Layer 1"
     inkscape:groupmode="layer"
     id="layer1">
    <g
       aria-label="R"
       transform="matrix(1.0472806,0,0,0.95485393,0,6.6145833)"
       id="text1089"
       style="font-weight:300;font-size:89.6311px;font-family:Helvetica;-inkscape-font-specification:'Helvetica, Light';fill:#000000;stroke-width:0.264583">
      <path
         d="m 66.255334,144.5537 q 3.405981,0 6.274177,-0.71705 2.957826,-0.71705 5.108973,-2.24078 2.151146,-1.61336 3.405982,-4.03339 1.254835,-2.42004 1.254835,-5.82603 0,-3.58524 -1.344466,-5.91565 -1.254836,-2.33041 -3.495614,-3.67487 -2.151146,-1.34447 -5.019341,-1.88226 -2.778565,-0.53778 -5.826022,-0.53778 H 47.25354 v 24.82781 z m -19.001794,5.19861 v 29.30937 h -6.094915 v -64.5344 h 25.275971 q 10.666101,0 16.312861,4.0334 5.646759,3.94377 5.646759,12.90688 0,6.09492 -2.509671,9.68016 -2.42004,3.58524 -7.977168,6.09491 2.868195,0.98595 4.481555,2.8682 1.61336,1.88225 2.42004,4.30229 0.80668,2.42004 0.985942,5.10898 0.268893,2.68893 0.358525,5.1986 0.08963,3.67487 0.268893,6.09491 0.268893,2.42004 0.537786,3.94377 0.358525,1.52373 0.80668,2.42004 0.448156,0.80668 1.075574,1.25484 v 0.62742 h -6.722333 q -0.985942,-1.61336 -1.434098,-4.48156 -0.358524,-2.86819 -0.627418,-6.00528 -0.179262,-3.13709 -0.358524,-6.09492 -0.08963,-2.95782 -0.448155,-4.84008 -0.537787,-2.5993 -1.792623,-4.12303 -1.165204,-1.61336 -2.868195,-2.42004 -1.702991,-0.80668 -3.854137,-1.07557 -2.061516,-0.26889 -4.302293,-0.26889 z"
         id="path1099"
         style="fill:#000000" />
    </g>
    <g
       aria-label="C"
       transform="matrix(0.98791992,0,0,1.0122278,0,16.66875)"
       id="text1093"
       style="font-weight:300;font-size:77.923px;font-family:Helvetica;-inkscape-font-specification:'Helvetica, Light';fill:#0000ff;stroke-width:0.264583">
      <path
         d="m 117.23055,97.70384 q -1.63638,-7.168915 -6.07799,-10.207912 -4.44161,-3.038997 -11.61053,-3.038997 -5.064995,0 -8.727376,2.025998 -3.662381,2.025998 -6.077994,5.454609 -2.33769,3.428612 -3.506535,7.948146 -1.090922,4.441606 -1.090922,9.428686 0,4.67538 0.935076,9.19491 1.012999,4.51953 3.272766,8.10399 2.259767,3.50654 6.077994,5.68838 3.818227,2.18184 9.584531,2.18184 3.58446,0 6.54553,-1.16884 2.96107,-1.16885 5.14292,-3.19484 2.25976,-2.10392 3.7403,-4.90915 1.55846,-2.80523 2.33769,-6.15592 h 5.53253 q -0.93507,4.052 -2.7273,7.71438 -1.79223,3.58446 -4.7533,6.31176 -2.88316,2.72731 -7.091,4.36369 -4.12992,1.55846 -9.740371,1.55846 -6.467609,0 -11.065066,-2.33769 -4.597457,-2.41561 -7.558531,-6.46761 -2.88315,-4.052 -4.207841,-9.35076 -1.324691,-5.37669 -1.324691,-11.37676 0,-8.02607 1.948075,-13.636522 2.025997,-5.610455 5.532532,-9.11699 3.506535,-3.584458 8.259838,-5.142918 4.753303,-1.636383 10.363755,-1.636383 4.28577,0 7.94815,1.168845 3.7403,1.090922 6.54553,3.350689 2.88315,2.259767 4.67538,5.610456 1.87015,3.272765 2.57146,7.636453 z"
         id="path1102"
         style="fill:#0000ff" />
    </g>
    <g
       aria-label="S"
       transform="matrix(1.0855038,0,0,0.92123123,0,7.6729166)"
       id="text1097"
       style="font-weight:300;font-size:89.6311px;font-family:Helvetica;-inkscape-font-specification:'Helvetica, Light';fill:#000000;stroke-width:0.264583">
      <path
         d="m 99.435783,164.9099 q 0.358524,4.30229 1.882257,7.34975 1.61336,2.95783 4.0334,4.84008 2.50967,1.88225 5.73639,2.77856 3.22672,0.80668 6.90159,0.80668 4.30229,0 7.43938,-1.07557 3.13709,-1.07557 5.10898,-2.86819 1.97188,-1.88226 2.86819,-4.3023 0.98594,-2.42004 0.98594,-5.10897 0,-3.76451 -1.70299,-6.09491 -1.70299,-2.33041 -4.48155,-3.76451 -2.68894,-1.52373 -6.27418,-2.42004 -3.49561,-0.89631 -7.26012,-1.70299 -3.67487,-0.89631 -7.26012,-2.06152 -3.49561,-1.1652 -6.27418,-3.13709 -2.688929,-1.97188 -4.39192,-5.01934 -1.702991,-3.13709 -1.702991,-7.88753 0,-3.31636 1.344467,-6.45344 1.434097,-3.13709 4.123034,-5.55713 2.77856,-2.42004 6.90159,-3.85414 4.12303,-1.4341 9.5009,-1.4341 5.4675,0 9.5009,1.52373 4.12303,1.52373 6.81196,4.21266 2.68893,2.5993 4.0334,6.09492 1.34447,3.49561 1.34447,7.43938 h -5.82603 q 0,-3.67488 -1.34446,-6.36381 -1.25484,-2.68893 -3.49562,-4.39192 -2.24077,-1.70299 -5.10897,-2.50967 -2.86819,-0.80668 -5.91565,-0.80668 -4.66082,0 -7.88754,1.34446 -3.13709,1.25484 -5.01934,3.31635 -1.88225,2.06152 -2.5993,4.57119 -0.71705,2.50967 -0.2689,5.01934 0.53779,3.13709 2.50967,5.01934 1.97189,1.88226 4.84008,3.13709 2.8682,1.16521 6.27418,1.97189 3.49561,0.71705 7.08086,1.61336 3.58524,0.80668 6.90159,1.97188 3.40599,1.1652 6.00529,3.13709 2.5993,1.97188 4.12303,5.10897 1.61336,3.04746 1.61336,7.70828 0,8.96311 -6.18455,13.89282 -6.18454,4.92971 -17.38843,4.92971 -5.01934,0 -9.32164,-1.34447 -4.30229,-1.25483 -7.43938,-3.85414 -3.137087,-2.68893 -4.929709,-6.54307 -1.702991,-3.94376 -1.702991,-9.232 z"
         id="path1105"
         style="fill:#000000" />
    </g>
  </g>
</svg>
